<?xml version="1.0" encoding="UTF-8" standalone="no"?>
<svg
   xmlns:dc="http://purl.org/dc/elements/1.1/"
   xmlns:cc="http://creativecommons.org/ns#"
   xmlns:rdf="http://www.w3.org/1999/02/22-rdf-syntax-ns#"
   xmlns:svg="http://www.w3.org/2000/svg"
   xmlns="http://www.w3.org/2000/svg"
   id="svg8"
   version="1.1"
   viewBox="0 0 306.31894 340.7434"
   height="340.74341mm"
   width="306.31894mm">
  <defs
     id="defs2" />
  <metadata
     id="metadata5">
    <rdf:RDF>
      <cc:Work
         rdf:about="">
        <dc:format>image/svg+xml</dc:format>
        <dc:type
           rdf:resource="http://purl.org/dc/dcmitype/StillImage" />
        <dc:title></dc:title>
      </cc:Work>
    </rdf:RDF>
  </metadata>
  <g
     style="display:inline"
     transform="translate(145.38062,-10.251658)"
     id="layer2">
    <path
       id="path991"
       d="m 212.64009,120.51033 c -52.52105,0.41044 -75.06237,9.25171 -115.838848,37.77795 -14.211043,7.45546 -15.779052,6.08001 -46.444923,30.50121 L 22.185291,204.2998 c -12.4188843,7.52159 -15.4354878,13.08437 -19.6383627,18.89429 5.8615716,-2.84764 11.7231427,-5.28406 17.5847147,-7.41937 -3.629531,4.16155 -8.068179,7.7837 -9.716813,13.26585 8.021294,-7.04766 16.042589,-9.31278 24.063883,-11.10081 -10.311992,7.25862 -16.006893,9.42338 -28.2239571,19.46763 4.9838171,0.7555 8.8873451,1.78143 21.5513131,-6.48647 18.630308,1.65456 53.26952,-2.1954 65.515383,-1.73687 24.439238,10.89682 39.211578,15.87519 52.435848,18.63547 -1.354,10.28214 2.94735,30.29956 0.84778,38.11684 -2.76851,2.74111 -4.36575,13.03347 -2.59941,11.60832 6.19852,7.76964 18.55449,7.77602 18.81754,8.69671 l 24.39888,5.73678 -2.15403,-7.40983 c -12.28121,-1.53377 -19.11418,-5.42488 -22.70128,-10.09734 -4.47397,-5.82766 -4.29074,-25.00271 -4.69633,-36.48683 1.53495,-3.07015 5.45417,-9.08967 2.18617,-11.70739 2.54823,-2.62748 11.9236,-3.05324 16.28455,-3.96957 2.36143,6.93603 -0.59617,3.57571 3.64279,9.43769 -2.33418,4.02876 2.29147,19.82006 3.87441,32.83184 1.12696,9.26359 -0.67222,15.73443 -1.36896,21.80302 5.4457,6.47743 25.52946,16.507 17.29906,9.29005 12.93371,1.69719 26.56203,9.90284 37.52863,8.23783 -20.44573,-11.57473 -31.05468,-14.41088 -37.48698,-18.09158 -0.72456,-9.33756 -9.63303,-27.72116 -6.41168,-45.78861 -1.02877,-3.86908 -2.88591,-5.12955 -2.38675,-8.85347 0,0 6.86629,-6.39928 6.75881,-11.54023 25.37351,-7.07999 85.98783,-37.71114 85.02432,-70.31931 -0.61807,-20.91723 -4.4308,-55.16911 -17.31044,-75.310019 -11.63622,-18.196479 -14.07313,-31.953578 -11.2166,-55.577188 -2.17083,-8.703216 7.21308,-9.604775 12.3057,-10.712964 21.293,-8.577893 34.32919,-3.61087 41.37086,-6.688326 0.83564,-3.185525 0.0142,-5.588984 -13.59123,-11.9405734 -4.13487,-1.9303337 -10.00987,-4.6695581 -15.5796,-9.19643925 -3.34933,-2.72221795 -3.40946,-5.69631955 -6.81611,-8.32150995 -9.78112,-7.5374214 -26.72458,-11.4416664 -41.09796,-0.163771 -8.81896,6.9196989 -13.0478,33.9868986 -12.44684,61.5873646 0.71688,32.924681 5.60457,66.810046 -5.59251,67.519316 z"
       style="fill:#000000;fill-opacity:1;stroke:#000000;stroke-width:0.96499997;stroke-linecap:butt;stroke-linejoin:miter;stroke-miterlimit:4;stroke-dasharray:none;stroke-opacity:1"
       transform="translate(-147.53661,26.3818)" />
  </g>
</svg>
