<?xml version="1.0" encoding="UTF-8" standalone="no"?>
<svg
   xmlns:dc="http://purl.org/dc/elements/1.1/"
   xmlns:cc="http://creativecommons.org/ns#"
   xmlns:rdf="http://www.w3.org/1999/02/22-rdf-syntax-ns#"
   xmlns:svg="http://www.w3.org/2000/svg"
   xmlns="http://www.w3.org/2000/svg"
   id="svg936"
   version="1.1"
   viewBox="0 0 177.09613 292.68735"
   height="292.68735mm"
   width="177.09613mm">
  <defs
     id="defs930" />
  <metadata
     id="metadata933">
    <rdf:RDF>
      <cc:Work
         rdf:about="">
        <dc:format>image/svg+xml</dc:format>
        <dc:type
           rdf:resource="http://purl.org/dc/dcmitype/StillImage" />
        <dc:title></dc:title>
      </cc:Work>
    </rdf:RDF>
  </metadata>
  <g
     transform="translate(-30.372463,-36.698469)"
     id="layer3">
    <path
       id="path950"
       d="m 127.08666,37.080376 c 0,0 4.24973,-0.305211 8.97723,12.016116 4.77916,-4.060095 5.20202,-7.112099 6.94128,-7.005719 1.30313,0.512556 0.91899,1.400061 0.67137,2.257227 2.07944,-0.156723 -1.3544,6.012077 0.93509,13.028984 4.82071,3.205465 6.69216,7.938226 1.5736,16.29081 1.8801,-1.08173 2.81257,4.303928 11.44928,-4.576978 1.51786,-1.560774 -0.55922,-6.647075 0.35968,-7.757585 0,0 1.63693,0.408095 1.45924,5.592912 0,0 5.01004,-5.887941 6.82874,-5.116477 2.16248,0.917286 -4.44828,6.290243 -6.04952,9.25734 -0.12377,0.829936 -0.83033,2.447018 -0.23138,3.120461 0.41167,0.462874 2.10987,-0.08407 2.34422,0.6296 0.36833,1.121648 2.85356,-5.055047 4.16719,-3.740855 0.63505,0.635329 -0.81507,2.314191 -1.81668,4.629532 -1.07025,2.473993 -1.71366,5.570503 -1.50919,5.529609 0,0 4.54011,-1.247665 7.58772,-2.68409 2.36175,-1.11316 3.24496,-2.550658 3.90388,-2.029173 1.41498,1.119858 -4.13961,4.809276 -9.04103,7.929103 -3.54656,2.257444 -3.92749,6.249134 -3.23852,8.326512 17.65468,-11.767125 14.04205,-6.006237 16.6952,-5.409459 3.17681,-2.071339 2.14443,-7.00466 4.67192,-7.423302 1.20594,0.771913 -0.13463,5.082717 -0.14063,6.89305 l -1.63748,4.346082 c 1.60187,-1.471723 3.63446,-0.673867 4.37366,-2.016099 4.16603,-7.564613 6.07831,-5.279934 0.25944,3.236781 5.93828,-1.173885 10.07925,-0.200373 -0.68295,2.13049 -2.65918,0.965808 -4.37541,2.524122 -5.25829,4.555712 16.05872,5.18046 9.99588,6.62237 5.69684,8.28192 1.16546,1.90378 -0.54108,4.40534 -1.99494,3.77909 -0.4516,1.71236 0.33755,2.87201 -3.7746,2.70158 0.12957,1.43273 5.1939,4.15782 2.94164,6.43302 11.29595,4.05978 13.5624,11.86994 15.4228,11.20245 2.65768,-0.95354 6.00128,-5.02952 6.70938,-3.98484 0.82326,1.21455 -4.77125,6.39219 -6.9552,8.24651 5.89555,4.17631 3.11171,3.95124 -0.41994,4.19449 0.83424,0.28048 0.8231,0.70186 2.61046,0.82349 2.88945,-3.20055 3.43228,-2.88116 2.04635,0.33136 4.1981,9.6e-4 2.12637,1.01317 1.04727,1.86529 1.93761,1.73486 6.78184,4.42347 -2.05741,2.62217 -1.56568,2.00181 -3.28775,3.95893 -6.08409,5.60911 12.1041,2.34407 8.27013,3.59845 8.27013,3.59845 l -9.02842,0.0343 c -0.96601,1.2626 -1.85999,2.53962 -1.58965,4.04949 3.76434,0.27205 -4.17705,7.57186 -7.28285,12.34599 4.0141,5.95006 17.50745,15.23824 7.79004,16.99971 -3.5675,10.79119 -4.96274,8.9713 -6.67195,10.75439 l -2.20477,-2.66084 c 1.3818,-8.19331 -2.04188,-9.97931 -3.34057,-14.59864 -3.42713,3.60581 -4.15432,5.66244 -5.64979,6.78463 -6.38022,-3.3046 -5.79704,-10.43907 -7.57973,-16.27231 -5.38165,21.17788 -7.50242,22.28883 -9.69377,23.83407 -2.26069,0.83901 -0.82228,-5.15322 -1.16195,-8.7232 -6.49289,0.22303 -14.1143,10.58412 -16.922,8.6848 -2.58919,3.40869 -3.2716,7.63456 -4.16181,11.77138 -0.95986,-2.87957 -5.55871,97.13565 -10.67654,121.50839 -0.63844,-14.93105 -18.7765,-38.12505 -18.7765,-38.12505 0.19511,-10.29681 6.68439,-22.42064 9.47598,-38.48963 4.53281,-26.09185 6.97979,-55.61777 2.83973,-56.67217 -0.99303,-0.25291 -1.50824,4.81206 -2.10343,3.48328 -1.92011,-4.28664 -2.61288,1.35522 -7.12688,3.22852 -4.6136,-4.04278 -8.51016,-9.66305 -11.864401,-16.47643 2.441771,-5.37089 7.671251,-12.57579 1.114423,-12.02655 -3.720189,-3.16555 -6.343283,-0.0228 -9.093664,2.38805 7.08318,11.24167 -3.400492,19.96094 -6.142185,19.33467 2.593818,-13.66308 -1.535309,-14.90229 -1.535309,-14.90229 -7.356989,5.86295 5.679622,17.22073 -0.728514,26.34602 -4.662473,2.42461 -9.091755,3.3434 -11.571957,-4.73865 -0.598273,-1.94955 -1.38861,1.15701 -2.414722,-1.19164 -7.085752,2.2388 -8.779026,1.88121 -9.119234,0.87215 -1.248302,-9.78932 4.05128,-12.09498 6.201923,-14.68781 2.854473,-3.44137 3.724444,-5.19329 4.796867,-10.5521 l -17.769517,5.86749 c 1.213998,-2.76118 1.699627,-5.52235 1.401767,-8.28353 -0.303413,-10.05127 3.487526,-10.89025 5.957988,-14.70031 -3.658991,0.11959 -0.0346,-3.30257 0.08541,-5.30867 -3.670958,-1.51147 -12.223576,-16.02992 -14.584994,-12.11189 -1.557731,-0.69217 -2.701844,-2.83201 -3.760819,-5.26984 -5.485442,0.43371 -10.457215,0.63394 -10.486455,-1.41244 4.175693,-0.2328 6.036704,-1.33361 8.290491,-2.28713 -6.135234,-6.29472 -5.017431,-5.99577 -6.020307,-7.62472 3.116534,0.0122 5.49345,5.39494 10.057364,7.01205 4.24757,1.50502 8.834345,0.15617 11.777594,-0.48011 0.369525,-8.79492 7.000774,-8.50914 6.572286,-14.0914 -1.941252,-4.01568 -4.167604,-6.61171 -6.989031,-6.24457 -3.952876,-11.33707 -10.217664,-3.62626 -15.659304,-8.7763 1.928896,-1.46476 5.364457,0.72688 5.5963,-1.43757 -0.679851,-2.696284 -8.434081,-6.956041 -5.752003,-7.870695 8.917108,6.216185 11.657903,7.136615 18.635069,8.083645 4.824191,-5.613495 6.350378,-9.293516 9.155055,-11.071409 -5.036722,-8.523131 -16.62933,-7.568917 -15.326355,-9.809548 4.298178,-1.783648 7.817844,1.528887 8.062507,-0.336645 -0.09224,-3.447543 -4.218067,-6.354229 -3.927703,-7.737435 6.141063,0.423045 3.377926,8.189696 15.839977,9.608082 -5.662381,-9.034808 5.459119,-7.263708 10.881824,-5.833531 1.37265,0.36202 0.50495,-3.6482 -1.366539,-7.606012 3.741171,-10.505916 -14.631181,-8.486447 -12.023537,-14.112769 3.092099,3.903944 8.239557,2.726543 10.581947,3.211043 1.07286,-2.188195 -10.644798,-8.421696 -6.039354,-8.814756 1.620132,-0.138273 5.198178,3.251463 6.988442,3.358297 3.014902,0.179915 4.912426,1.415021 9.039146,-0.568504 -0.117244,-1.962539 -2.896233,-4.989775 -4.606624,-7.589572 2.938199,0.06264 7.729941,8.79412 11.966297,9.803903 0.337987,-5.563726 3.364437,-4.982394 6.106241,-5.051674 -3.421417,-3.730663 -2.785961,-5.939997 -0.53038,-7.541785 20.43285,14.237821 17.87568,19.633329 15.74201,25.191719 2.3271,1.920147 4.65421,2.838374 6.98131,3.338761 -0.24372,-14.328828 2.72519,-13.397619 5.2087,-14.772083 5.99473,-8.92967 -2.96849,-16.122548 -2.91528,-18.747266 z"
       style="fill:#000000;fill-opacity:1;stroke:#000000;stroke-width:0.76499999;stroke-linecap:butt;stroke-linejoin:miter;stroke-miterlimit:4;stroke-dasharray:none;stroke-opacity:1" />
  </g>
</svg>
