<?xml version="1.0" encoding="UTF-8" standalone="no"?>
<svg
   xmlns:dc="http://purl.org/dc/elements/1.1/"
   xmlns:cc="http://creativecommons.org/ns#"
   xmlns:rdf="http://www.w3.org/1999/02/22-rdf-syntax-ns#"
   xmlns:svg="http://www.w3.org/2000/svg"
   xmlns="http://www.w3.org/2000/svg"
   id="svg8"
   version="1.1"
   viewBox="0 0 416.98676 290.46203"
   height="290.46204mm"
   width="416.98676mm">
  <defs
     id="defs2" />
  <metadata
     id="metadata5">
    <rdf:RDF>
      <cc:Work
         rdf:about="">
        <dc:format>image/svg+xml</dc:format>
        <dc:type
           rdf:resource="http://purl.org/dc/dcmitype/StillImage" />
        <dc:title></dc:title>
      </cc:Work>
    </rdf:RDF>
  </metadata>
  <g
     transform="translate(147.53661,-26.3818)"
     id="layer2">
    <path
       id="path862"
       d="m 110.11504,316.51067 c -4.35227,-5.0312 -6.64972,-9.06776 -12.141844,-11.50411 -4.800971,-2.12975 -13.349684,-3.34253 -19.395955,-3.99751 0.306667,-1.24174 1.007794,-2.15476 0.322443,-4.22318 -7.426597,-6.5042 -2.887658,-34.06775 -4.331487,-51.10162 4.778565,-0.8162 2.672298,-13.73501 3.368606,-21.76542 0.73963,-8.53004 7.691527,-13.5211 11.865758,-16.92184 50.508529,-18.19342 87.182709,-34.59868 87.074509,-60.57929 8.72263,-13.04929 11.17936,-32.82254 3.6683,-55.39097 -2.55213,-7.668349 1.96956,-6.929621 2.16136,-8.709013 9.72835,-10.192667 84.78341,49.399163 86.12055,36.283803 C 273.034,113.88055 231.05435,86.066401 195.10675,61.268276 190.89115,50.28117 197.13547,31.22354 155.48092,26.809502 135.80286,24.724262 111.0265,57.852795 105.77666,61.727316 93.327929,63.861349 86.962703,69.540181 73.615887,73.732243 36.540459,85.377155 -29.905298,108.08051 -75.637275,131.29289 c -16.885458,1.29836 -60.246755,4.83139 -62.316875,9.57863 0.49549,2.16716 5.68,2.41608 11.65193,2.34288 -7.13897,1.91218 -10.42397,5.69125 -2.58188,6.85399 2.45702,0.3643 -23.48564,8.08398 -5.18428,7.86953 4.43848,-0.052 -13.526,4.09308 -13.12949,6.59089 13.03731,3.89979 55.139604,-11.29019 82.735449,-0.0106 44.46703,40.14084 87.234295,36.85404 130.745263,52.56825 -11.809545,22.50973 2.986654,37.68937 -3.741772,81.24992 -2.20876,3.15524 -2.474573,7.15524 -8.418991,8.68628 27.473246,-0.13991 52.219671,9.57401 55.992961,9.48806 z"
       style="fill:#000000;fill-opacity:1;stroke:#000000;stroke-width:0.66500002;stroke-linecap:butt;stroke-linejoin:miter;stroke-miterlimit:4;stroke-dasharray:none;stroke-opacity:1" />
  </g>
</svg>
