<?xml version="1.0" encoding="UTF-8" standalone="no"?>
<svg
   xmlns:dc="http://purl.org/dc/elements/1.1/"
   xmlns:cc="http://creativecommons.org/ns#"
   xmlns:rdf="http://www.w3.org/1999/02/22-rdf-syntax-ns#"
   xmlns:svg="http://www.w3.org/2000/svg"
   xmlns="http://www.w3.org/2000/svg"
   id="svg996"
   version="1.1"
   viewBox="0 0 211.03787 200.00107"
   height="200.00107mm"
   width="211.03787mm">
  <defs
     id="defs990" />
  <metadata
     id="metadata993">
    <rdf:RDF>
      <cc:Work
         rdf:about="">
        <dc:format>image/svg+xml</dc:format>
        <dc:type
           rdf:resource="http://purl.org/dc/dcmitype/StillImage" />
        <dc:title></dc:title>
      </cc:Work>
    </rdf:RDF>
  </metadata>
  <g
     transform="translate(-247.53719,-116.92832)"
     id="layer4">
    <path
       id="path1009"
       d="m 247.98352,200.216 c -0.91351,1.79852 3.95488,1.30181 2.39009,6.59629 1.18453,1.87241 2.54959,2.30872 6.17552,4.57498 4.92758,3.05524 10.51605,5.79358 9.60446,6.68019 6.89237,-1.40916 39.99156,-10.71405 36.69385,-4.65269 4.93738,6.40345 8.72885,9.80989 12.03465,11.9461 -0.73761,2.02205 -36.50598,21.37083 -23.36558,38.1957 6.08054,18.03144 31.39242,3.28884 42.39115,-3.63898 0.0706,6.95843 2.57576,9.43766 3.98757,13.02794 -8.56629,6.99662 -16.45151,14.81054 -27.10602,19.3013 -0.47219,0.37831 -0.75156,0.87528 -0.0777,1.95882 -1.55163,1.99591 -9.81226,8.45411 -7.12919,7.90064 -1.95046,2.53556 -7.21563,7.64105 -4.83267,7.68657 -1.12407,2.51406 -2.23378,5.18615 -3.61725,4.84692 0.75472,0.003 1.1031,0.35467 2.13437,-0.0125 0.0225,0.60448 -0.44439,1.33722 1.30319,1.79215 1.59591,0.37555 -2.50959,0.74317 1.39079,-5.57319 0.71273,0.93377 1.22663,0.19174 2.19274,-3.14336 0.80515,-0.14814 -0.43345,2.03829 3.08947,-4.51123 0.96833,0.39796 2.92565,-3.58495 5.95186,-7.01645 7.56522,-4.2003 28.90788,-20.80186 29.14961,-22.82181 3.3546,-5.18301 1.61277,-10.95614 -0.94213,-16.82341 6.96875,-4.74214 6.65294,-6.59795 25.65549,-16.1082 3.69864,1.70312 0.0853,2.70985 13.16911,5.3068 3.78008,6.45275 9.2629,13.92715 7.10357,16.81626 0.98792,0.86875 2.61448,1.21656 4.29371,2.93989 0.87627,0.89929 1.55519,2.36353 2.46846,3.41137 1.88545,2.16326 4.00688,3.85957 5.57979,4.31096 0.0147,1.39011 3.21888,3.99813 3.44683,1.52526 l 5.09706,4.9286 c -0.65339,-1.6914 -0.42376,-2.60575 1.14791,-2.3391 l -4.80146,-2.97367 c 1.62212,-1.0249 -4.64495,-4.08572 -8.01651,-6.39932 -1.13475,-1.39673 2.67139,0.0639 -5.02889,-5.12976 -0.65472,-1.83555 1.7167,-1.79282 -11.23073,-19.97453 -1.89331,-1.79784 -0.84954,-2.5721 -10.87522,-7.05846 0.39956,-2.29517 -5.05514,-6.64306 -1.87894,-6.75623 11.64911,6.48445 14.15222,7.5059 17.3895,5.75545 4.2185,0.79072 3.04929,1.64636 13.82257,2.35811 0.51777,-0.9357 -0.39599,-1.51351 -1.64361,-2.00786 2.24595,0.35505 4.89806,-0.95968 6.41705,2.38399 -1.48192,-1.12701 3.19064,-3.31181 -4.44577,-3.38101 -1.2637,-0.25752 1.44152,-1.76018 -3.97986,-0.71333 -2.53639,-0.51877 4.25755,-0.43834 -7.6869,-1.56129 l -1.77649,0.71869 c -4.59056,-2.12651 1.02152,-0.8825 -13.77982,-6.38221 1.1227,-1.45437 2.42382,0.9572 3.3092,-5.63907 0.99346,-0.60101 2.12804,-0.78886 2.96273,-1.8265 1.20385,-1.49657 0.009,-3.40827 4.54785,-1.93997 0.73557,-0.64042 1.37619,-1.32319 2.59538,-1.74794 2.11914,0.0153 3.79393,-0.7515 3.70474,-4.62288 0.83018,-1.36656 2.00536,-2.0431 2.18694,-4.70686 1.56646,-0.44418 2.42291,-1.34986 5.63453,-0.72468 34.15966,-8.02575 53.66131,-5.77828 59.87371,-0.59428 3.94318,3.29042 0.8966,7.92349 -1.90961,11.35188 1.6927,1.1359 31.19379,-28.99479 -66.28284,-12.42803 l -1.08346,-3.35382 c 3.98557,-9.28207 8.55017,-17.84068 11.04262,-25.20732 19.00356,-56.16652 1.98224,-57.26299 -4.52762,-57.50032 15.22326,2.84414 19.29385,22.04502 -8.70003,81.80029 -1.30115,0.72688 -2.77838,1.54945 -3.99087,0.68037 -2.2678,-2.77263 -4.41894,-3.3286 -6.33137,0.6509 -1.84964,1.10959 -2.45993,2.63231 -3.29217,4.08104 -1.42878,0.43365 -2.93598,0.0352 -4.25847,1.59687 1.71847,-4.79832 3.60373,-8.51254 4.64653,-17.70267 3.46946,-2.9899 11.52233,-5.03151 10.23122,-9.00635 l 4.39272,-10.38312 c -0.14765,-0.0992 -1.37808,0.056 -0.90662,-1.04706 0.33689,-0.7882 2.11605,-4.28081 1.82326,-4.29385 -2.10884,-0.0939 -2.10536,-0.56225 -2.10884,-0.0939 -0.007,0.9389 -0.93388,5.99727 -2.09088,4.09031 -0.42151,3.87372 -2.94159,7.93938 -3.0366,10.83901 -1.91755,3.6232 -8.09458,6.9981 -9.38369,8.84818 -2.20024,3.1577 -5.76275,5.0592 -8.1832,18.20054 -2.01283,1.26996 -4.4363,0.97952 -5.88908,4.3777 -1.41296,-0.18205 -2.16517,0.51691 -2.833,1.32836 -0.83676,-1.18599 -4.42875,-9.69679 -13.05043,-3.01203 -3.24015,-4.11576 -4.51548,-12.49003 -9.74119,-12.30231 -3.47435,-0.83104 0.80492,-2.84793 -22.56735,-0.63575 -1.82428,-1.24858 -0.4529,-0.84422 -5.62237,-3.82307 -0.70347,-1.83085 -1.9635,-4.83415 -2.53314,-3.72222 -0.85311,-1.10868 -1.2409,-3.49042 -2.54863,-2.94028 l -2.1591,-4.89029 c -1.41927,0.12839 -2.19512,0.37422 -3.05326,1.5231 1.50421,0.0149 2.48636,2.03255 4.17143,4.12307 -1.71672,0.81484 -0.96097,1.69864 5.49084,8.64972 -1.19791,1.71895 6.8462,1.55232 7.58737,4.98116 4.02732,-1.9626 17.03056,-4.49651 19.29627,-1.94425 3.04015,11.21501 5.67521,9.96797 7.50194,15.83131 -6.11143,3.10862 -9.6683,7.32506 -15.52848,9.27754 -3.89096,-4.0801 -8.56858,-13.73137 -16.52181,-12.42532 -5.18537,0.20263 5.47365,-2.73463 -37.96555,5.04878 -1.98282,-2.45034 -4.89221,-2.7036 -11.92406,-7.55274 -1.2577,-5.53062 -3.62636,-7.62824 -4.84115,-7.1976 z"
       style="fill:#000000;fill-opacity:1;stroke:#1e0000;stroke-width:0.66500002;stroke-linecap:butt;stroke-linejoin:miter;stroke-miterlimit:4;stroke-dasharray:none;stroke-opacity:1" />
  </g>
</svg>
