<?xml version="1.0" encoding="UTF-8" standalone="no"?>
<svg
   xmlns:dc="http://purl.org/dc/elements/1.1/"
   xmlns:cc="http://creativecommons.org/ns#"
   xmlns:rdf="http://www.w3.org/1999/02/22-rdf-syntax-ns#"
   xmlns:svg="http://www.w3.org/2000/svg"
   xmlns="http://www.w3.org/2000/svg"
   id="svg8"
   version="1.1"
   viewBox="0 0 240.726 208.78603"
   height="208.78603mm"
   width="240.726mm">
  <defs
     id="defs2" />
  <metadata
     id="metadata5">
    <rdf:RDF>
      <cc:Work
         rdf:about="">
        <dc:format>image/svg+xml</dc:format>
        <dc:type
           rdf:resource="http://purl.org/dc/dcmitype/StillImage" />
        <dc:title></dc:title>
      </cc:Work>
    </rdf:RDF>
  </metadata>
  <g
     transform="translate(36.824898,-48.765335)"
     id="layer2">
    <path
       id="path846"
       d="m 137.90051,53.084199 c 0.28564,3.672755 0.63974,1.255688 0.28564,3.672755 -2.18834,6.755401 -5.11567,13.793322 -10.31301,26.818896 -1.35877,2.993602 -5.01905,-3.773789 -10.69173,13.69079 -0.76438,2.353343 -2.59888,4.76074 -3.59287,7.96765 -0.48172,0.25351 -0.30248,1.1317 -0.79894,1.15221 -1.77234,0.0732 -4.0871,0.56795 -6.20011,2.61803 -5.6242,-1.8074 -2.93753,-0.24809 -3.16141,0.94783 -2.23257,-0.54952 -4.395496,0.30844 -5.889496,0.98987 -1.196675,-5.82701 0.777925,-0.66027 -3.829577,-18.311475 C 85.626912,87.60711 80.634466,86.019647 69.462721,77.559819 66.020445,72.59267 63.371663,69.439218 54.853447,52.86992 l 0.09908,-3.197492 c -0.562795,0.52567 -2.131873,0.79977 -3.675967,1.080116 1.047365,1.64015 1.206124,-1.289672 3.143579,4.928083 4.520074,8.266363 8.482062,16.128001 14.714147,25.635919 7.199926,4.348782 14.394077,8.691788 21.07171,12.518276 1.069183,6.578698 1.773643,13.613308 3.488468,19.384958 -4.164751,2.52112 -90.3919019,34.54279 -100.4927458,67.89944 -2.184782,0.19188 -3.6382842,1.04186 -5.7234802,1.3992 -7.149822,1.22529 -14.538934,2.40876 -21.904426,1.32814 -1.416285,-0.20778 -2.808975,-1.05857 -1.480165,4.02377 1.968983,-2.05113 18.911495,-1.06136 28.9020466,-4.23844 -0.633445,9.88133 6.85886969,21.19112 57.5273514,7.90157 l -2.762205,7.5444 c -1.872842,-0.29382 -5.856997,-0.50994 -0.02151,1.70177 -0.04645,5.66512 0.838865,3.06854 1.713686,0.56504 1.072374,0.2941 1.178201,-0.59199 3.561243,-1.65176 3.327982,0.68836 9.990239,-4.94133 10.785376,-4.59331 -2.000628,7.60507 -2.608362,21.81127 -2.333039,33.00345 -3.243243,6.53946 -10.087616,11.15165 -14.489581,13.27301 -1.910498,0.92069 -3.476506,0.37117 -3.975505,0.83768 0.846535,1.29669 -1.789957,0.31603 3.167578,4.30069 0.800165,-1.53661 -0.497192,-1.38368 1.128224,-2.48249 2.549261,-1.72334 9.378632,-5.21694 14.562156,-11.67496 5.881826,17.6632 2.983201,22.75514 12.018125,24.80418 33.077307,0.78223 40.915997,-57.79122 60.265287,-116.71799 3.85735,-0.6683 7.41949,-1.4104 13.33101,-1.56515 5.51479,3.95289 7.98465,5.1146 17.2897,12.54189 11.78348,-2.45086 20.5035,0.12465 35.66789,-8.56299 1.67779,-0.9612 0.75488,1.16531 2.93274,0.37162 -0.67646,-1.32865 -0.46415,-2.49571 -2.93347,-4.15033 -2.1463,1.00087 0.19921,1.04875 -1.57685,2.15295 -5.0768,3.15629 -14.60301,7.27742 -31.20967,7.21608 -5.71409,-3.6254 -17.74009,-9.42865 -20.52628,-13.47949 -3.38901,-0.0133 -6.33796,-0.19584 -11.93684,0.64081 0.0477,-1.29836 -0.31576,-2.59673 -1.51192,-3.89509 1.71165,-0.66284 2.06824,-3.96675 1.49667,-5.20803 0.70395,-1.35723 1.94238,-1.31756 2.3525,-2.92641 5.06722,-3.00386 16.18421,-5.55399 14.79748,-9.0419 -0.2879,-2.39852 0.30553,-3.73945 -1.60101,-8.08035 7.16988,-7.412614 15.97142,-14.125947 20.92402,-22.488829 1.12848,-0.594676 0.26009,-0.979155 4.41949,-1.892875 l -3.5633,-2.578891 c -0.24029,1.005343 0.69211,1.592807 -2.044,3.487514 -5.48472,6.149186 -1.46222,5.287991 -22.8574,23.169131 0.77154,2.47391 2.00216,4.94782 1.44074,7.42173 -0.73443,1.53241 -5.2351,2.75096 -10.18229,3.9323 -1.88618,-1.88982 -3.59094,-4.05177 -4.41905,-7.52871 2.64235,1.70187 5.37355,2.693 8.19409,2.96943 5.5846,-0.63253 8.08425,-3.52448 1.09578,-13.36546 1.10541,-2.466693 0.55491,-4.849277 12.99047,-3.829825 -6.09156,-1.320093 -9.18672,0.07676 -14.38357,0.356533 -0.0777,-0.463009 -1.13813,-0.926018 -2.07122,-1.389027 1.11738,-4.955425 1.27066,-9.598167 -0.89507,-13.488799 1.8648,4.341145 2.2106,8.682291 -0.54455,13.023436 -14.67878,-8.261963 -14.32876,0.253168 -14.89638,3.377981 1.34244,2.23297 0.83076,4.053911 5.04923,6.926001 -2.89493,1.5838 -6.32677,-2.31261 -8.69502,-3.07135 2.76278,-4.958892 2.34466,-16.034918 9.2164,-13.091961 1.58212,-4.162765 0.0316,-2.340102 1.44303,-7.356157 2.38805,-8.486609 7.7792,-23.60652 11.33368,-26.26095 -0.82503,0.161552 -3.97884,-2.732968 -4.3694,-1.693803 z"
       style="fill:#000000;fill-opacity:1;stroke:#000000;stroke-width:0.76499999;stroke-linecap:butt;stroke-linejoin:miter;stroke-miterlimit:4;stroke-dasharray:none;stroke-opacity:1" />
  </g>
</svg>
