<?xml version="1.0" encoding="UTF-8" standalone="no"?>
<svg
   xmlns:dc="http://purl.org/dc/elements/1.1/"
   xmlns:cc="http://creativecommons.org/ns#"
   xmlns:rdf="http://www.w3.org/1999/02/22-rdf-syntax-ns#"
   xmlns:svg="http://www.w3.org/2000/svg"
   xmlns="http://www.w3.org/2000/svg"
   id="svg8"
   version="1.1"
   viewBox="0 0 199.03116 320.1254"
   height="320.1254mm"
   width="199.03116mm">
  <defs
     id="defs2" />
  <metadata
     id="metadata5">
    <rdf:RDF>
      <cc:Work
         rdf:about="">
        <dc:format>image/svg+xml</dc:format>
        <dc:type
           rdf:resource="http://purl.org/dc/dcmitype/StillImage" />
        <dc:title></dc:title>
      </cc:Work>
    </rdf:RDF>
  </metadata>
  <g
     transform="translate(52.623572,-72.36614)"
     id="layer2">
    <path
       id="path827"
       d="m 65.330312,118.94905 c -2.211591,3.48116 -3.720978,4.62163 -6.882619,11.26962 -0.04305,-3.60759 -1.138751,-7.21517 -3.319947,-10.82276 0.500804,-5.27819 -1.8107,-11.61098 -4.089239,-17.93142 -6.08553,17.11577 -3.209677,32.73062 -12.055377,36.5451 -0.603213,5.96803 -2.162856,10.26231 -4.187516,13.7428 -0.617129,2.35793 -2.370088,3.75937 3.49217,11.57363 2.113216,9.72585 7.190377,1.07523 10.888195,0.97654 l -4.921249,11.80997 c -3.286265,1.35778 -4.834617,5.66205 -8.434715,7.37572 l -4.430217,5.3636 c -2.061511,-4.65743 -5.253567,-8.18431 -5.728376,-14.42844 l -0.238506,7.67017 c -2.151726,-2.40385 -3.19814,-4.8077 -8.337981,-7.21154 0.0016,-3.73636 -2.236718,-5.55272 -4.688859,-7.18583 -4.4999418,-3.33863 -6.0420102,-12.29722 -13.7484976,-9.54341 5.4817023,9.5262 21.0525586,16.68099 23.7736376,42.79999 1.410791,3.64226 3.879014,9.8832 4.87216,14.46516 1.157059,5.3382 0.932724,8.80665 4.291123,9.19184 l 0.229022,7.77821 c -3.099945,-0.72042 -8.020825,0.27233 -9.410512,4.15238 0.318206,-3.92947 -0.178369,-5.41459 -0.540212,-7.30392 -0.901621,4.09184 -2.311971,8.88412 -4.530924,11.32929 -1.623222,-4.54476 -2.177367,-6.51164 -3.80059,-9.03779 -0.329096,2.67488 0.480275,4.89438 -1.43481,8.20366 -2.2558987,-3.08114 -2.5173454,-6.56117 -9.7298945,-8.65098 0.9862193,2.54189 1.3825303,4.61185 0.5916634,5.73206 -2.49241483,1.14833 -6.7061399,-5.39532 -13.1151109,-6.56503 -3.171458,-3.11112 -6.640272,-10.38521 -9.490636,-9.00102 -5.437174,-1.30889 -3.347123,-6.75775 -16.311907,-3.92644 45.3251866,25.02052 30.9672172,53.28485 50.98385,69.04801 -1.908461,1.88505 -3.751691,2.75081 -5.5997452,3.69196 -3.330675,1.6962 -6.6770216,3.63728 -10.4491468,12.23149 0.21485727,-1.24964 -2.2506884,-4.37556 -5.577146,-8.10412 -0.482857,2.3378 0.3292216,5.19357 -1.7330385,6.89961 -10.5284705,-6.37249 -18.9469205,-19.36457 -21.6322265,-17.68032 -7.40542,-4.18638 -13.817279,-11.19036 -21.750403,-7.78793 9.393216,7.97151 24.432613,13.92652 28.179647,23.91452 l -2.561557,1.2458 c 4.375222,3.26753 9.427009,-1.23442 15.125691,20.86626 2.4353595,9.44484 15.2251268,25.44185 20.6896057,36.05629 -1.5212797,11.86811 -2.544113,17.20145 -0.2180992,23.63046 l 2.8009325,11.04066 c 1.457554,-11.82404 1.971676,-18.20899 4.29122,-34.81025 7.285425,1.01909 11.507806,-0.51435 14.536358,-3.04265 6.817018,-3.34388 9.671974,-6.68777 10.082886,-10.03166 12.352138,-9.61872 9.506457,-17.13156 10.379759,-20.79575 8.515133,-35.40067 0.167568,-20.57203 -2.033337,-24.05259 l 1.975369,-4.99957 c 22.889942,-6.24016 16.99223,-11.8216 20.551639,-14.71061 24.431722,-36.75081 16.352505,-32.74698 16.947577,-34.0363 -1.993808,6.39132 -4.896021,9.14903 -8.905254,7.47865 -1.09366,-1.52868 0.614735,-2.25677 1.084717,-3.3387 0.19732,-2.3676 -25.319681,-5.87464 -42.960005,-13.62849 l 2.776783,-13.63263 c 6.96086,2.00513 16.51648,5.55873 19.263678,9.48535 3.97147,4.44385 16.928964,1.79668 24.95135,0.51711 14.193175,0.97245 15.269688,-1.01692 22.501848,-1.61631 -3.51052,-3.01297 -10.826068,-2.56682 -16.869764,-3.2769 0.710332,-2.15702 2.322226,-3.2235 3.436221,-4.88237 -3.843805,3.08876 -6.811068,5.32961 -10.770816,5.22674 1.194394,-3.08615 4.151193,-6.1723 7.855743,-9.25845 -6.099872,3.5559 -11.660733,6.45301 -13.287385,4.54164 -0.295327,-1.90421 0.301803,-4.1059 1.063451,-6.36243 4.062947,-5.30051 4.93046,-11.13358 7.081806,-16.75269 2.749872,-2.04312 3.41677,-0.78403 4.752973,0.29417 1.44958,1.16968 5.958044,2.20182 9.044641,-0.22217 1.83586,0.41947 3.67172,1.43449 5.50758,-1.55653 1.0352,-6.84362 -3.94468,-4.93802 -6.396653,-6.70938 15.625173,-9.72555 7.932823,-6.43667 9.907133,-8.54314 -0.53835,-2.54974 -5.77111,-0.40507 -9.190761,-0.0735 -5.499442,-1.4771 -11.278053,-3.71557 -12.980619,5.16245 -1.53713,1.98008 -3.074259,2.60587 -4.611388,1.73524 0.470735,-2.1561 -1.924689,-3.73896 -4.984549,-5.18893 11.678958,1.71916 15.771435,-8.57361 23.555457,-13.02144 9.96083,9.50512 12.23897,9.40687 16.96236,12.36518 1.65821,-4.62662 -0.0513,-5.51129 -1.4955,-6.69083 2.61025,-7.25982 1.11941,-8.14016 0.74293,-10.75396 4.11982,1.05118 8.57286,-3.13537 16.76425,-1.13901 1.09477,0.26682 -1.51174,-1.70491 -0.91887,-2.55476 2.17703,-3.12068 -0.50448,-12.85363 -9.86438,-13.01122 -6.00157,-0.10104 -21.40794,9.23952 -25.368079,0.77845 2.570669,-0.96007 8.709069,-7.17534 11.869749,-6.70289 1.09178,0.1632 2.75797,-1.56932 2.10148,-2.49184 -0.63251,-0.88884 -2.68894,0.59965 -2.84293,-1.62053 -0.1274,-1.83677 1.5452,-3.16196 1.19153,-5.30818 0.79151,-1.15974 2.41204,-1.67469 4.33157,-1.95709 -1.46075,0.0133 -2.34515,-0.38501 -4.58986,0.1883 l -0.32407,-1.13018 c 6.00625,-1.28976 5.55346,-2.14892 8.17425,-3.21299 0,0 -3.98778,-0.64704 -4.92094,-1.23575 5.23409,-0.36299 9.80317,-3.51903 14.42834,-6.43944 15.70786,2.59862 12.49016,1.56502 15.07248,1.59857 1.14788,0.24646 -4.72559,-6.04991 -4.05022,-6.67631 0.76077,-0.97604 3.23943,-1.33363 1.16201,-3.33142 -0.50589,-1.64442 1.88476,-1.67521 -1.76756,-4.89284 1.97698,-2.60865 4.96234,-0.5788 7.49767,-0.61904 1.06744,-1.13775 0.97732,-2.73851 0.80777,-4.37105 -1.24498,-2.75162 -1.45878,-5.186201 -2.87573,-6.601132 -8.98341,-8.970614 -21.88299,6.377192 -27.88533,7.521112 -8.19323,-0.62456 -10.74941,-7.531767 -20.570637,-7.48635 3.510819,-1.938209 6.655547,-4.608591 9.099747,-8.680045 -1.89673,-0.298072 -3.00158,0.195738 -4.309199,0.486774 2.524989,-3.419424 5.996329,-5.667168 6.061569,-12.131996 -3.87988,0.135232 -5.0824,1.991623 -7.390199,3.137473 0.451543,-2.042143 -0.07099,-4.084287 -0.604279,-6.126431 -1.760089,1.313271 -3.99154,2.390861 -5.077652,4.041119 0.42462,-0.955432 -0.163866,-1.476676 -0.580012,-2.07178 -2.650069,2.508352 -3.649525,6.800822 -6.926248,9.330058 0.359334,0.708963 -1.926215,8.85525 -2.682412,11.094033 -0.191664,-0.635711 -0.317677,-1.205772 -0.623303,-1.955445 -0.306375,0.678863 -0.928488,1.515596 -1.470688,2.312372 0.911447,-19.680634 -1.248041,-16.553833 -1.969631,-17.882155 -0.08859,1.30759 1.877705,7.514496 -1.6093,12.55667 -0.424765,-1.975669 -0.752752,-4.034291 -0.308323,-6.754984 -2.388167,3.626461 -2.711415,10.848778 -4.917716,16.369627 -0.05254,3.05009 -2.545139,7.03187 -1.825171,21.7914 -1.297718,3.33036 -2.541567,6.71459 -4.448449,9.43578 -1.146742,-3.39376 -0.106039,-8.09999 0.422685,-12.49903 z"
       style="fill:#000000;fill-opacity:1;stroke:#000000;stroke-width:0.96499997;stroke-linecap:butt;stroke-linejoin:miter;stroke-miterlimit:4;stroke-dasharray:none;stroke-opacity:1" />
  </g>
</svg>
