<?xml version="1.0" encoding="UTF-8" standalone="no"?>
<svg
   xmlns:dc="http://purl.org/dc/elements/1.1/"
   xmlns:cc="http://creativecommons.org/ns#"
   xmlns:rdf="http://www.w3.org/1999/02/22-rdf-syntax-ns#"
   xmlns:svg="http://www.w3.org/2000/svg"
   xmlns="http://www.w3.org/2000/svg"
   id="svg8"
   version="1.1"
   viewBox="0 0 158.29538 240.04182"
   height="240.04182mm"
   width="158.29538mm">
  <defs
     id="defs2" />
  <metadata
     id="metadata5">
    <rdf:RDF>
      <cc:Work
         rdf:about="">
        <dc:format>image/svg+xml</dc:format>
        <dc:type
           rdf:resource="http://purl.org/dc/dcmitype/StillImage" />
        <dc:title></dc:title>
      </cc:Work>
    </rdf:RDF>
  </metadata>
  <g
     transform="translate(-0.17971858,-44.314533)"
     style="display:inline"
     id="layer2">
    <path
       id="path845"
       d="m 59.426782,50.70631 c 1.783938,0.709543 1.750584,-4.755589 3.431229,-5.668285 1.980816,-1.075708 4.342126,1.537584 3.420039,5.415702 -0.362816,1.525934 3.493163,-0.92509 4.464044,0.525426 1.681029,2.51149 -4.152562,8.174243 -6.390144,8.187325 -4.919943,0.02876 -2.119128,2.533986 3.665215,1.578481 2.665095,-0.440242 -1.871216,3.304395 -1.016269,3.381108 1.103278,0.099 1.925493,2.664935 0.684599,2.553734 -1.027859,-0.09211 -8.911291,-0.802075 -8.521478,3.382191 0.410351,4.404721 2.601796,1.597346 4.402426,2.56784 1.965069,1.059123 -1.819701,3.650512 -0.631555,4.792487 2.338617,2.247738 6.200576,-4.411116 6.716667,-5.459942 3.377168,-6.863241 6.343184,2.286007 8.800373,0.925183 3.31749,-1.837271 2.370789,-9.996541 7.367094,-6.126597 4.74871,3.678167 -3.111667,8.722846 0.02577,9.529194 1.198723,0.308082 5.301707,-2.627345 6.172892,-1.6235 3.244021,3.738005 -8.393467,8.773274 -10.071724,11.260671 -0.464891,0.689029 0.914568,1.820282 7.16909,2.265799 2.699952,0.192321 3.055583,0.05227 6.012734,0.459706 2.63343,0.362832 -2.324252,5.659069 0.366893,4.746272 0.659907,-0.223831 3.157126,1.659044 1.361604,2.613616 -0.417344,0.221877 -6.8278,-0.767818 -6.800821,2.385394 0.0178,2.080595 12.47047,-1.804871 11.23138,4.380925 -1.16586,5.82021 -14.770413,1.09222 -15.308735,3.18649 -0.603539,2.34799 9.260732,2.83496 6.406763,4.01974 -6.303654,2.61688 -20.591838,-8.07224 -18.114946,-3.21336 1.686974,3.30931 -2.638241,4.92986 -3.133813,8.004 -0.387536,2.40397 3.509926,-2.24195 3.605607,1.15093 0.107506,3.81222 -5.5215,1.13164 -5.081748,4.63297 0.464441,3.6979 9.575748,1.93548 8.051998,4.35969 -3.138287,4.99287 2.424085,1.11487 -1.366912,9.30814 -0.964078,2.0836 3.889579,-1.52494 3.965701,3.96678 0.01696,1.22348 -5.998266,1.32803 -5.576025,3.29049 0.282294,1.31202 7.951785,-1.61961 11.337306,1.50085 4.056959,3.73934 -9.895691,2.61111 -9.44783,3.5679 0,0 2.855932,2.91369 8.678699,2.76751 1.134815,-0.0285 -0.789585,2.98916 0.33283,3.393 3.504114,1.26078 3.827359,6.50487 7.496955,4.46806 4.461543,-2.47637 -2.117446,-5.97782 -0.561064,-7.09066 3.089178,-2.2088 2.315533,-2.45886 6.117,-3.50451 1.331794,-0.36633 2.933984,4.32616 4.320064,4.6427 3.8936,0.88919 5.27456,-4.12085 7.96706,-1.52321 1.13942,1.09927 3.14566,3.47662 1.11421,5.47953 -3.33034,3.28354 -11.99002,1.91684 -8.65262,7.05091 1.53807,2.36608 5.93731,2.11465 7.66674,1.12496 3.84024,-2.19763 -4.90233,-1.95779 3.22967,-7.21024 4.98192,-3.21782 -0.63141,3.8626 0.93064,7.94982 0.82618,2.16176 0.36278,1.6046 1.39455,2.26672 1.7428,1.11841 2.2576,-1.94749 4.71978,-1.40457 2.13284,0.47029 -3.90462,7.03807 -1.74173,6.67729 1.19478,-0.1993 6.83723,-0.55241 7.00443,-3.55522 0.24188,-4.344 -6.39644,-6.74605 -4.92534,-7.27529 2.33663,-0.84062 8.80658,3.32497 10.50782,1.18491 0.81102,-1.02021 -0.54419,-2.83769 0.21146,-3.97362 0.59495,-0.89437 1.17669,-0.0833 1.74529,-1.03723 0.40782,-0.68416 0.59099,-3.56368 1.2032,-4.10308 1.24259,-1.0948 2.53419,2.25494 3.13992,1.03543 0.50723,-1.02119 1.02623,-0.82456 2.14485,-0.46965 1.36705,0.43374 -2.73053,10.17144 -0.28176,10.92169 2.53689,0.77725 5.56629,-4.90107 7.30979,-6.03246 2.32898,-1.5585 -0.059,3.63286 1.83967,2.88812 1.54957,-0.60782 2.14685,0.13784 3.00526,1.24979 0.84812,1.09863 -4.27694,4.73868 -3.09674,5.59241 1.84442,1.3342 2.66571,1.35622 2.63625,2.85811 -0.0523,2.66853 -7.25143,0.42023 -7.5667,1.28045 -0.194,0.52931 5.1615,1.64526 6.563,2.47009 0.87256,0.51353 -0.92109,0.81608 -0.28358,1.77242 0.65793,0.98697 2.70753,1.43524 2.1314,3.14651 -0.48787,1.44914 -4.54112,2.28062 -3.25166,3.41339 3.10491,2.72762 -10.26002,3.65396 -10.4693,3.63966 -1.9157,-0.13092 0.30793,1.19966 0.8857,1.93429 0.87883,1.11742 -11.71383,-1.88217 -10.3852,-0.0397 1.80117,2.49773 -3.74303,5.66233 -0.22382,8.70206 1.64568,1.42146 1.74242,0.7635 3.37313,2.70816 2.3075,2.75173 -3.99817,3.54545 -3.31509,4.40143 0.97507,1.2219 1.38569,2.84264 -0.8519,4.91431 -1.79437,1.6613 -2.81956,4.75905 -1.90709,5.03777 1.20657,0.36855 2.37417,-0.41732 3.75913,1.14348 0.37129,0.41844 1.46658,-3.78279 4.41974,-2.16747 1.8402,1.00656 1.63177,7.59801 2.09232,7.73784 2.83545,0.86084 1.39451,-0.0767 2.65959,2.67661 0.58438,1.27183 -0.45981,0.58579 -0.24141,3.73629 0.12923,1.86415 0.63246,2.83893 5.66907,7.29399 3.11336,2.75387 3.79014,2.94995 9.28099,3.15509 1.51003,0.56773 2.51437,2.84508 3.04685,3.03473 2.38732,0.85027 -3.94809,3.53726 -6.76274,2.23576 -0.31523,-0.14576 8.72951,3.14425 6.69586,7.45937 -0.36348,0.77124 -0.84182,5.65452 -3.9171,4.55564 -3.28511,-1.17386 -10.04001,-5.12956 -10.97531,-2.58008 -1.15178,3.13955 5.35497,4.12221 6.43126,7.07848 0.31775,0.87278 -2.51085,1.52753 -1.80719,1.88406 3.43591,1.7409 -2.37627,5.34119 -6.88536,3.97484 -2.58009,-0.78183 -5.85065,-3.49859 -5.69509,-1.68163 0.46233,5.40023 -10.6483,-2.30348 -12.72003,-1.35948 -3.45979,1.57648 8.64249,8.2033 6.17909,10.35871 -1.20487,1.05423 -4.77456,0.11701 -4.62591,1.98523 0.41085,5.16342 -3.81656,2.60677 -8.23035,-0.63486 -1.04079,-0.76439 2.37575,6.43713 1.10761,6.76166 -3.76819,0.96433 -3.24155,-3.60341 -3.79394,-2.21693 -0.33617,0.84379 -0.79174,0.98268 -1.81267,0.19039 -3.60498,-2.79764 2.55182,-9.92934 -3.43197,-13.11702 -2.08134,-1.10877 -5.82532,-5.06567 -3.48255,-1.21549 1.25929,2.06955 4.18177,6.0732 1.1962,6.0765 -6.470942,0.007 -6.115801,-10.34856 -8.531962,-8.06801 -3.629828,3.4261 -5.056298,4.89909 -5.497339,3.47996 -0.93018,-2.99302 0.420162,-8.24852 -2.200112,-7.45012 0,0 -4.671914,0.48564 -1.392616,7.89021 1.421748,3.21027 3.925442,0.20708 5.347068,3.9719 0.691604,1.83154 -6.197917,7.96508 -6.836552,5.98108 -1.177522,-3.65811 -6.484299,-13.62746 -6.584251,-12.12865 -0.308369,4.62408 4.152217,4.68229 0.143807,7.61015 -1.911898,1.3965 -3.613979,-1.41576 -2.673529,0.97406 0.989646,2.51483 1.305341,5.04158 -1.062955,6.81403 -4.023608,3.0113 -4.533982,-5.92884 -5.964128,-5.27843 -1.130426,0.5141 -4.730381,8.88554 -5.693589,9.34601 -0.988099,0.47237 -0.750521,-1.94634 -1.235768,-2.26751 -0.579259,-0.38338 -1.889925,1.77308 -1.898362,0.95467 -0.03944,-3.82552 5.950705,-7.85924 5.558466,-15.3299 -0.05317,-1.01269 -2.218393,0.19649 -2.614904,-1.7258 -0.224037,-1.08614 4.066693,-2.92435 3.528244,-5.73016 -0.282366,-1.47138 -4.822199,2.2081 -5.951992,1.2276 -1.403778,-1.21828 -2.502068,-4.97363 -1.206019,-6.94697 0.605431,-0.92182 -4.186993,0.74396 -5.453613,0.6806 -1.607879,-0.0804 0.274297,-2.91464 -1.245752,-2.57955 -1.882427,0.41498 -2.299246,-1.51296 -3.383243,-1.98866 -0.964912,-0.42345 -3.461586,-5.47494 -4.466679,-5.70693 -1.72513,-0.39819 2.889342,-2.82642 3.543466,-5.06413 0.480205,-1.64274 -3.433367,2.07718 -5.007017,1.58209 -1.004602,-0.31605 -0.638273,-3.78916 -1.756597,-4.71975 -0.733232,-0.61014 -1.66918,1.72446 -2.551402,1.42135 -1.841732,-0.63277 0.38137,-2.44044 -0.343752,-2.52728 -1.422324,-0.17035 -0.222259,-1.63088 -0.729549,-1.94257 -0.998953,-0.61378 3.66128,1.19613 3.144698,0.18173 -0.311371,-0.61144 5.724968,-2.87307 3.957952,-3.47777 -1.605308,-0.54937 -3.05784,2.06018 -4.483572,1.27994 -1.116838,-0.6112 -0.699009,-2.25897 -1.770648,-2.86461 -0.744819,-0.42094 -0.344995,3.1755 -1.068493,2.75726 -1.092549,-0.63157 -2.273789,-3.2891 -3.253342,-4.01428 -1.588335,-1.17588 0.185844,-1.863 1.121766,-2.82421 0.646359,-0.66383 0.321048,-1.53883 0.797458,-1.91421 0.764541,-0.60241 3.511123,3.67845 5.731037,1.91133 1.256623,-1.00032 1.766679,-0.30069 2.857088,-1.3036 1.225938,-1.12756 -0.263624,-4.07684 0.920744,-5.04781 2.579779,-2.11496 2.996272,2.05128 3.80551,0.96961 1.274223,-1.70319 1.151559,-6.43422 2.107087,-8.14134 3.308449,-5.91076 5.24209,-10.64222 0.291872,-19.32422 -1.096058,-1.92233 -4.145536,2.46413 -5.259452,0.40107 -0.335311,-0.62102 -0.0084,-0.73188 -0.341705,-1.37194 -0.401244,-0.77042 -2.076962,0.80741 -2.475159,0.009 -0.363449,-0.72877 -0.157562,-1.47068 -0.515814,-2.2255 -0.378684,-0.79787 -1.912617,-0.58742 -2.402987,-1.34997 -0.803826,-1.25 0.233741,-2.41739 1.074427,-3.16604 1.458763,-1.29904 -3.451287,-2.37962 2.237492,-4.51859 1.423977,-0.53541 -1.392162,-5.02085 -2.991536,-5.84684 -1.622531,-0.83795 -0.663483,-8.80592 -2.042175,-9.90919 -0.593702,-0.4751 -0.930827,0.49571 -1.484203,-0.0164 -0.810927,-0.75042 1.822468,-5.84186 -1.833792,-9.17767 -0.676606,-0.61731 -3.280191,-2.69685 -4.087377,-3.11808 -1.715056,-0.895 -2.719261,5.57067 -3.981288,5.79334 -0.981227,0.17313 -3.236084,-1.58103 -2.256718,-2.72649 0.750617,-0.87791 -4.673313,2.56448 -7.190106,2.0114 -0.68803,-0.15119 -0.887913,-0.72716 -1.086636,-1.42494 -0.174126,-0.61142 -2.06469,-0.37491 -2.409592,-0.93117 -1.099318,-1.77301 3.713577,-1.55012 4.477926,-2.04431 2.454709,-1.58709 7.739255,-0.69098 9.342128,-3.34306 0.199188,-0.32957 -1.339239,-0.36118 -0.806106,-1.16459 1.188983,-1.79174 4.795975,-4.98152 5.082192,-6.58108 0.208287,-1.16403 -1.740563,-0.57455 -1.590104,-1.81845 0.211288,-1.7468 -5.475333,4.21575 -5.333104,2.30864 0.07125,-0.95531 -1.129554,0.46566 -1.050831,-0.55341 0.0882,-1.14179 -4.11492,2.9636 -4.010431,1.73749 0.07477,-0.87739 -1.785656,2.42787 -2.721186,2.38818 -3.284904,-0.13937 0.0886,-2.78934 -2.45165,-4.20228 -1.925617,-1.07107 -4.169675,2.57809 -5.192611,0.89238 -0.911646,-1.50232 0.499272,-2.65175 0.215592,-4.6303 -0.160688,-1.12074 -9.4102589,4.35442 -10.1983011,3.37935 -2.28514981,-2.82749 1.0550685,-3.08227 1.6820253,-4.67604 0.481685,-1.22447 -2.6961121,-0.48596 -2.67115711,-3.53126 0.0144662,-1.76533 3.58015551,-1.92571 5.84806611,-2.29974 1.0455216,-0.17243 2.8431106,-2.06237 3.2971436,-3.08085 1.5906732,-3.56814 -8.4805979,-4.46187 -6.7123682,-10.20493 2.0928354,-6.79736 5.8940143,-1.04634 8.3425704,-4.25614 0.757566,-0.99309 -1.5838449,-3.13241 -1.120869,-4.14755 0.571581,-1.25327 2.097348,-1.65698 3.232164,-2.51112 0.729777,-0.54927 -2.482961,-2.00584 -2.833178,-2.76319 -0.561017,-1.2132 1.706384,-1.21075 2.028735,-2.02917 0.190662,-0.48407 -2.9340996,-0.31852 -1.135876,-3.238867 0.565912,-0.919052 0.53276,-2.367925 1.526011,-3.166758 1.236785,-0.994697 1.981935,1.098078 2.693657,1.272952 1.277678,0.313931 1.101453,-1.43253 1.960061,-1.621741 2.237382,-0.493051 3.214167,5.499834 3.75823,4.270501 1.417533,-3.20297 2.923981,-2.49839 3.284468,-3.644923 0.538777,-1.713585 -1.672952,-2.208288 -1.225254,-3.990021 0.632008,-2.515238 2.54292,-1.694676 3.010595,-2.215956 0.299799,-0.334162 1.265309,-1.642254 2.093811,-1.29843 0.763452,0.316828 1.268514,2.211217 1.435078,1.824531 0.405512,-0.941411 2.591489,-1.412547 3.316369,-2.179755 1.666364,-1.76367 -4.849426,-4.461119 -5.398354,-5.507393 -0.723263,-1.378559 -0.674492,-3.797637 -1.187586,-6.155621 -0.657715,-3.02261 -5.463164,-3.99555 -5.006473,-5.237007 0.524471,-1.425708 2.873745,0.956409 5.713207,-0.385271 2.074206,-0.980087 -0.731952,-4.815509 0.423624,-6.439937 0.685609,-0.963783 1.040281,0.434028 2.201788,-0.199947 0.656875,-0.358536 1.396303,-5.602695 2.20724,-5.836143 5.545928,-1.596526 3.061236,3.577339 4.358948,3.765152 0.865327,0.125236 2.332401,-0.89847 2.934023,-1.558995 0.857307,-0.941242 0.687621,-1.680628 0.764294,-1.889827 0.456757,-1.299425 2.891606,-0.02678 3.294023,-1.257947 0.69194,-2.116941 -1.993755,-3.669231 -1.770357,-5.62772 0.180747,-1.584567 2.128874,-1.002157 3.961798,-0.09416 0.454373,0.225089 0.651189,-2.826116 1.947662,-2.575348 3.660594,0.708044 4.840035,12.031031 4.996356,9.408869 0.50946,-8.545799 -1.63843,-10.170106 2.149103,-11.524965 2.866242,-1.025299 1.92685,4.197935 4.375715,5.171947 z"
       style="fill:#000000;fill-opacity:1;stroke:#000000;stroke-width:0.96499997;stroke-linecap:butt;stroke-linejoin:miter;stroke-miterlimit:4;stroke-dasharray:none;stroke-opacity:1" />
  </g>
</svg>
