<?xml version="1.0" encoding="UTF-8" standalone="no"?>
<svg
   xmlns:dc="http://purl.org/dc/elements/1.1/"
   xmlns:cc="http://creativecommons.org/ns#"
   xmlns:rdf="http://www.w3.org/1999/02/22-rdf-syntax-ns#"
   xmlns:svg="http://www.w3.org/2000/svg"
   xmlns="http://www.w3.org/2000/svg"
   id="svg8"
   version="1.1"
   viewBox="0 0 349.23853 226.67195"
   height="226.67195mm"
   width="349.23853mm">
  <defs
     id="defs2" />
  <metadata
     id="metadata5">
    <rdf:RDF>
      <cc:Work
         rdf:about="">
        <dc:format>image/svg+xml</dc:format>
        <dc:type
           rdf:resource="http://purl.org/dc/dcmitype/StillImage" />
        <dc:title></dc:title>
      </cc:Work>
    </rdf:RDF>
  </metadata>
  <g
     transform="translate(55.757222,-75.43434)"
     id="layer2">
    <path
       id="path905"
       d="m 107.9122,159.60565 c -98.1415909,-8.49552 -163.604814,39.52353 -163.285711,52.72768 5.495492,9.07143 13.70394,18.14286 16.063986,27.21429 13.186999,2.61753 22.079773,-9.29925 41.0895849,13.02627 2.2195989,2.41431 3.9728492,7.76953 6.6790304,9.52182 6.5346297,4.23126 9.4343057,8.09229 10.5820867,11.72302 9.783928,4.13515 10.610888,8.9593 14.400583,13.55554 10.388398,0.10677 12.317025,5.85338 17.20705,9.62573 8.149264,-2.65572 15.780653,0.90304 23.441008,4.11422 2.282795,-4.09535 15.409265,-2.16896 25.695896,-3.35828 3.798426,-3.41933 5.976376,-12.51029 7.777546,-22.92003 0.83302,-9.23342 4.92446,-17.16348 8.09745,-25.46091 4.05324,11.69593 9.11524,14.11129 15.68602,2.64583 1.93088,10.65414 11.74669,15.39498 10.59742,31.17946 -0.22929,3.14905 1.88355,4.43073 2.96573,6.45272 1.30949,2.44669 1.76785,5.45096 3.25678,7.34699 2.00093,1.41887 5.6039,3.2012 9.81429,2.86144 2.40781,-0.1943 6.43882,-1.56936 7.89208,-1.2849 2.6688,1.34958 3.64514,3.2069 11.01611,3.14583 8.13138,-6.18234 12.90348,-3.63054 18.71353,-3.77744 4.63354,-3.65872 7.61974,-8.75888 15.9695,-9.16592 3.50322,-4.81026 4.69724,-10.77513 12.80674,-13.28225 0.47605,-3.59385 10.29676,-10.3949 10.07797,-15.49961 l 9.71574,-10.62216 c 12.2457,-8.54705 22.04313,-6.42994 31.939,-6.04762 4.58124,-11.76048 18.67009,-20.25008 16.81992,-25.89136 -8.98378,-25.63716 -58.2089,-45.97665 -98.56551,-54.28083 -24.78261,-5.09952 -44.57276,-4.2478 -54.51484,-1.47066 -1.97278,-3.19917 -5.49697,-5.1055 -5.57451,-9.88404 0.50149,-10.92446 -2.95536,-7.87832 -5.25907,-8.90209 5.00797,-11.79159 23.05068,-39.90676 29.86718,-51.98549 2.3298,-4.128376 8.71963,-10.054291 5.73334,-11.451629 -3.13128,-1.465179 -4.32116,6.218971 -6.78336,10.884407 -2.65175,5.024598 -5.26954,11.185462 -12.7065,23.333472 -4.73463,7.73384 -12.4945,19.59474 -16.40515,27.85542 -2.83052,-24.9309 -5.58891,-10.85108 -5.10153,-4.2413 -1.46287,-2.51239 -0.50728,-10.56127 -1.90684,-10.63966 -1.06668,-0.0597 -2.32386,8.06155 -2.84124,12.9193 -7.75085,-16.79794 -16.87245,-31.59415 -26.572716,-50.111209 -2.466785,-4.708903 -6.071681,-17.656557 -6.943025,-12.430413 -0.88367,5.300067 4.458406,7.92131 6.829781,12.763057 8.9232,18.218905 20.81697,37.344745 28.26606,55.485685 -5.07265,-6.17805 -8.19773,-0.48571 -7.77327,5.26816 0.24249,3.28702 -3.6357,6.42765 -4.76814,9.05746 z"
       style="fill:#000000;fill-opacity:1;stroke:#000000;stroke-width:0.76499999;stroke-linecap:butt;stroke-linejoin:miter;stroke-miterlimit:4;stroke-dasharray:none;stroke-opacity:1" />
  </g>
</svg>
