<?xml version="1.0" encoding="UTF-8" standalone="no"?>
<svg
   xmlns:dc="http://purl.org/dc/elements/1.1/"
   xmlns:cc="http://creativecommons.org/ns#"
   xmlns:rdf="http://www.w3.org/1999/02/22-rdf-syntax-ns#"
   xmlns:svg="http://www.w3.org/2000/svg"
   xmlns="http://www.w3.org/2000/svg"
   id="svg8"
   version="1.1"
   viewBox="0 0 370.95596 279.42712"
   height="279.42712mm"
   width="370.95596mm">
  <defs
     id="defs2" />
  <metadata
     id="metadata5">
    <rdf:RDF>
      <cc:Work
         rdf:about="">
        <dc:format>image/svg+xml</dc:format>
        <dc:type
           rdf:resource="http://purl.org/dc/dcmitype/StillImage" />
        <dc:title></dc:title>
      </cc:Work>
    </rdf:RDF>
  </metadata>
  <g
     transform="translate(107.30728,-29.702642)"
     id="layer2">
    <path
       id="path827"
       d="m 29.780883,30.317849 c -1.942455,0.431716 -1.330771,3.642725 6.868973,8.057538 1.7722,4.409614 2.864005,9.698066 9.992128,18.9505 6.760628,3.673183 14.623443,5.262601 18.037184,6.027168 1.897612,0.191318 1.880347,0.785767 2.159767,1.317756 -3.018843,2.236501 -4.150514,4.473002 -5.647756,6.709503 l -9.993736,4.739565 c -2.568739,-0.460109 -4.91613,-0.944813 -8.240157,-1.321001 -2.296445,-3.141949 -3.96796,-4.575759 -7.483881,-11.050943 -1.908557,-0.965297 -9.882817,-2.014499 -7.205092,-5.911765 -0.553151,1.457361 -5.806002,1.603921 5.813592,6.456401 2.108342,3.590002 4.101457,7.397017 7.054356,10.28655 -19.565659,-0.434638 -21.03488,-1.139371 -58.697012,-1.303912 -1.322989,-0.147922 -13.184873,-2.560741 -28.379868,-5.274105 -9.635015,-1.72052 -20.787484,-3.883343 -30.977454,-3.942987 -16.395642,-0.09597 -30.149357,3.901683 -29.954697,13.810187 0.51121,15.363218 47.0894,25.948796 56.885419,29.009666 18.088551,9.1893 48.3067488,8.78177 89.324095,-0.16992 -11.418131,3.93971 -24.017127,7.81381 -39.94663619,11.50289 -10.44013581,0.0266 -31.71772981,2.38491 -67.46040381,9.33651 -18.1022,3.5207 -31.484328,12.78356 -30.796467,23.85124 0.291696,4.69339 7.254855,9.83167 26.343086,13.23045 6.060026,1.07902 13.386461,1.96301 22.068325,2.5662 6.310904,0.43846 13.338007,0.37204 21.115501,1.86041 7.149478,1.44484 14.288986,2.31146 21.412382,2.24361 19.801622,-1.43593 36.705146,-3.69988 51.216209,-6.6474 4.526314,-2.65934 25.443271,-2.86146 26.464213,-24.09337 1.563313,7.08939 -0.37753,13.40042 0.655839,20.44905 1.150795,7.84959 -0.848468,13.33176 -0.08926,21.1714 0.970317,10.01954 -0.95384,15.1163 0.400525,25.25176 0.280355,2.09806 1.023962,3.7165 1.127689,5.6618 0.243577,4.56806 -0.481883,9.23225 -0.643658,13.89086 -0.154943,4.46189 0.829028,9.19231 1.010632,13.78052 0.104456,2.63907 0.006,7.37314 0.221603,9.35079 0.231709,2.12505 0.782285,1.4912 1.022869,4.35978 0.126267,1.50554 -0.39801,9.27878 -0.08527,12.18786 0.302161,2.81069 0.969759,1.01855 1.054429,3.78577 0.126941,4.14872 -0.595649,7.06894 -0.43515,9.16458 0.321317,4.19546 0.826144,-1.41445 1.15955,2.63592 0.430434,5.22911 0.890148,10.3372 1.42873,15.32403 0.438304,4.05833 2.302023,7.34974 2.510036,11.42804 0.758238,-2.4261 1.205777,-5.86903 -0.768231,-17.23702 1.226942,3.23875 2.065783,8.41801 3.7407,9.41689 0.210982,-4.03127 0.499728,-8.03662 2.193588,-11.57359 0.6244,6.55051 -2.287555,16.3277 1.466468,18.26572 0.196499,-6.49366 2.411054,-1.2624 0.360015,-20.8143 0.319177,-1.69789 0.853421,-3.07318 0.214178,-6.2087 0.815894,-0.332 -0.13377,-7.02002 -0.462818,-11.47381 1.200817,-1.40535 0.589716,-8.76414 0.07927,-15.79219 1.080236,-1.39822 0.221208,-12.81596 -0.105421,-21.48298 -0.251499,-6.90904 0.501308,5.11519 -1.375743,-14.56605 -0.150439,-1.57739 -0.316556,-3.51584 -0.120274,-5.50113 0.140035,-1.41637 0.696515,-2.76379 0.518649,-4.44337 -0.495738,-7.96389 -1.821263,-13.27247 -1.197518,-24.81871 1.082099,-3.89162 -1.761818,-12.74455 -1.140852,-21.80487 -0.320444,-5.6817 -2.263987,-9.97217 -0.961332,-17.04509 6.17084,-15.3063 -2.284536,-4.33453 1.86393,-0.9842 4.647644,13.68969 4.381236,16.57578 56.149804,26.34991 7.22399,-0.13327 15.56419,5.66062 38.25806,1.6779 26.76464,-1.32665 64.31913,-1.40225 71.06022,-14.60378 2.48961,-8.46753 -8.34871,-17.35685 -24.34441,-23.03683 -16.09757,-5.71615 -49.64457,-8.9327 -70.01861,-12.59767 -17.24585,-4.82163 -23.42758,-7.3986 -36.00002,-11.38953 42.97364,11.68347 71.19834,12.79834 88.06974,5.96269 28.60743,-3.91481 64.8586,-20.13806 54.98862,-29.777721 -12.85301,-19.306921 -54.99539,-8.55126 -86.86778,-6.097321 -9.92734,0.663391 -30.92481,-3.128412 -50.71531,-3.07369 -13.07158,0.03614 -26.202587,3.135389 -33.177535,5.360295 -13.149747,4.194576 4.333983,19.968787 -0.705334,15.173124 -0.02318,-2.172064 3.545589,-6.832894 1.365149,-11.364979 1.021493,-0.559602 4.289909,-0.511678 5.135206,-1.199404 4.818624,-5.100154 6.287164,-12.943919 7.780734,-14.069105 6.88462,-0.448967 7.27297,-2.1927 7.13826,-4.102671 -1.67117,4.650146 -5.9352,1.658293 -8.23138,2.897822 -1.55521,2.904164 -5.091584,15.023456 -7.714671,14.963713 -1.775717,0.231937 -2.890558,0.899026 -3.70756,-0.09658 -1.842135,-2.21895 3.726743,-13.31071 -5.806975,-18.201763 11.924692,-0.902894 14.369316,-2.320491 16.149576,-3.47081 3.9987,-11.089107 4.23479,-15.459266 4.82867,-20.468338 8.8528,-5.787601 8.19857,-7.561127 5.84341,-8.616478 2.94785,2.886341 -3.24945,5.163006 -7.43322,7.573907 0.44464,9.696874 -2.52325,12.813704 -4.04866,18.711925 -2.529723,1.835756 -5.619598,1.991067 -8.632579,2.377056 C 96.90344,50.754899 89.844235,46.884849 86.730195,45.484103 89.019378,39.206665 70.97897,32.065411 67.554153,44.151985 63.374968,46.863648 57.740463,47.392329 59.648656,59.235058 59.208098,60.384546 54.390405,58.407508 46.471325,54.215195 42.090276,48.856168 38.845481,43.383515 38.017176,37.669214 32.510259,35.398076 28.4801,33.031045 29.780883,30.317849 Z"
       style="fill:#000000;fill-opacity:1;stroke:#000000;stroke-width:0.86500001;stroke-linecap:butt;stroke-linejoin:miter;stroke-miterlimit:4;stroke-dasharray:none;stroke-opacity:1" />
  </g>
</svg>
