<?xml version="1.0" encoding="UTF-8" standalone="no"?>
<svg
   xmlns:dc="http://purl.org/dc/elements/1.1/"
   xmlns:cc="http://creativecommons.org/ns#"
   xmlns:rdf="http://www.w3.org/1999/02/22-rdf-syntax-ns#"
   xmlns:svg="http://www.w3.org/2000/svg"
   xmlns="http://www.w3.org/2000/svg"
   id="svg8"
   version="1.1"
   viewBox="0 0 314.67349 247.1541"
   height="247.1541mm"
   width="314.67349mm">
  <defs
     id="defs2" />
  <metadata
     id="metadata5">
    <rdf:RDF>
      <cc:Work
         rdf:about="">
        <dc:format>image/svg+xml</dc:format>
        <dc:type
           rdf:resource="http://purl.org/dc/dcmitype/StillImage" />
        <dc:title></dc:title>
      </cc:Work>
    </rdf:RDF>
  </metadata>
  <g
     transform="translate(172.05343,-29.705916)"
     style="display:inline"
     id="layer2">
    <path
       id="path883"
       d="m -170.93302,238.2342 c -3.60184,6.20902 8.88475,7.93356 8.88475,7.93356 -3.76078,5.21251 17.14347,-3.11031 24.46494,-5.22288 18.29198,-10.24053 36.44885,-20.11469 60.426398,-32.03626 10.821166,0.6065 21.174521,-0.19044 30.574149,-3.84855 3.778483,7.15523 13.66731,3.26088 20.929039,6.61621 l 5.24303,24.56405 c -3.068711,14.44505 12.4878216,16.39744 5.291667,33.16741 2.973816,-1.28121 5.8646674,-3.59948 8.3398662,-11.1134 5.0938618,6.74833 4.161717,12.5325 3.0939129,18.29496 3.73441781,-5.50977 5.5142661,-12.24526 4.56212086,-13.97503 4.24502734,-9.95076 -4.20125856,-18.51292 -8.90884696,-20.51532 -0.1622721,-0.68165 -4.335098,-3.9489 -5.414042,-6.81646 -2.025894,-5.38431 -3.341955,-11.27838 -3.751881,-17.09053 10.7336177,-4.19726 20.7105555,0.68564 30.994048,1.88988 12.00823,9.91587 28.482613,20.94829 34.206843,29.29316 7.924423,0.58244 22.155871,4.49593 9.165924,14.45758 4.38501,0.077 9.912497,2.27554 12.801431,-6.92326 11.627021,5.9953 8.68743,12.43202 3.924015,18.924 11.571382,-6.52524 9.309938,-18.97231 4.985965,-21.15579 -2.400707,-1.21229 -0.961193,-7.03711 -3.568554,-8.89331 -3.58279,-0.2455 -7.327878,-0.57215 -12.400443,-1.56254 -7.235536,3.83416 -23.764065,-15.23293 -36.925449,-23.47838 106.773117,-50.41307 83.594657,-105.67091 86.273067,-113.86532 3.20673,-9.810779 5.26365,-9.981325 7.18154,-12.473219 11.33476,1.43894 15.9219,1.431961 22.67858,1.889882 0.47708,-4.983494 -8.40076,-11.142137 -17.94044,-17.85266 1.12327,-9.264292 -4.29763,-25.844329 -7.32305,-30.329807 C 111.39047,40.009642 97.342793,29.910057 92.065693,30.19466 80.373095,30.825259 51.04192,41.96797 43.48429,50.670228 c 5.396418,2.188037 -86.205521,66.944712 -82.037861,75.484532 -13.51059,13.22917 -28.11199,26.45833 -39.309522,39.6875 -31.638197,32.19399 -30.237557,33.44685 -31.125717,36.84318 -25.85286,12.52594 -46.04796,20.92075 -61.94421,35.54876 z"
       style="fill:#000000;fill-opacity:1;stroke:#000000;stroke-width:0.96499997;stroke-linecap:butt;stroke-linejoin:miter;stroke-miterlimit:4;stroke-dasharray:none;stroke-opacity:1" />
  </g>
</svg>
